# 3ds Max Wavefront OBJ Exporter v0.99 - (c)2007 guruware
# File Created: 05.03.2024 15:19:40

mtllib collectionBatiment.mtl

#
# object Box001
#

v  -88.5712 11.8760 -12.5209
v  -88.5712 37.4986 -12.5209
v  -69.3543 37.4986 -12.5209
v  -69.3543 11.8760 -12.5209
v  -85.3966 14.8565 3.5829
v  -72.5289 14.8565 3.5829
v  -72.5289 32.0134 3.5829
v  -85.3966 32.0134 3.5829
v  -69.3543 11.8760 5.4507
v  -88.5712 11.8760 5.4507
v  -69.3543 37.4986 5.4507
v  -88.5712 37.4986 5.4507
v  -72.5289 14.8565 4.6945
v  -85.3966 14.8565 4.6945
v  -72.5289 32.0134 4.6945
v  -85.3966 32.0134 4.6945
# 16 vertices

vn -0.5774 -0.5774 -0.5774
vn -0.5774 0.5774 -0.5774
vn 0.5774 0.5774 -0.5774
vn 0.5774 -0.5774 -0.5774
vn 0.5774 0.5774 0.5774
vn -0.5774 0.5774 0.5774
vn -0.5774 -0.5774 0.5774
vn 0.5774 -0.5774 0.5774
vn 0.5525 -0.5538 0.6229
vn -0.5525 -0.5538 0.6229
vn 0.5643 0.5568 0.6095
vn -0.5643 0.5568 0.6095
vn -0.3861 0.3949 0.8336
vn 0.3861 0.3949 0.8336
vn -0.4011 -0.3424 0.8496
vn 0.4011 -0.3424 0.8496
# 16 vertex normals

vt 0.7128 0.7471 0.0000
vt 0.3591 0.7476 0.0000
vt 0.3550 0.4825 0.0000
vt 0.7127 0.4818 0.0000
vt 0.0620 0.0599 0.0000
vt 0.2535 0.0602 0.0000
vt 0.2544 0.3150 0.0000
vt 0.0629 0.3161 0.0000
vt 0.7512 0.2660 0.0000
vt 0.7512 0.0000 0.0000
vt 0.9999 0.0016 0.0000
vt 0.9999 0.2676 0.0000
vt 0.3536 0.2332 0.0000
vt 0.7134 0.2327 0.0000
vt 0.1115 0.7482 0.0000
vt 0.1107 0.4834 0.0000
vt 0.7522 0.6223 0.0000
vt 1.0009 0.6216 0.0000
vt 0.0006 0.0015 0.0000
vt 0.3161 0.0005 0.0000
vt 0.2663 0.0494 0.0000
vt 0.0512 0.0496 0.0000
vt 0.3155 0.4139 0.0000
vt 0.2652 0.3267 0.0000
vt 0.0005 0.4140 0.0000
vt 0.0511 0.3255 0.0000
# 26 texture coords

o Box001
g Box001
usemtl Material__28
s 2
f 1/1/1 2/2/2 3/3/3 4/4/4 
s 4
f 5/5/5 6/6/6 7/7/7 8/8/8 
s 8
f 1/9/1 4/10/4 9/11/9 10/12/10 
s 16
f 4/4/4 3/3/3 11/13/11 9/14/9 
s 32
f 3/3/3 2/2/2 12/15/12 11/16/11 
s 64
f 2/17/2 1/9/1 10/12/10 12/18/12 
s off
f 10/19/10 9/20/9 13/21/13 14/22/14 
f 9/20/9 11/23/11 15/24/15 13/21/13 
f 11/23/11 12/25/12 16/26/16 15/24/15 
f 12/25/12 10/19/10 14/22/14 16/26/16 
f 14/22/14 13/21/13 6/6/6 5/5/5 
f 13/21/13 15/24/15 7/7/7 6/6/6 
f 15/24/15 16/26/16 8/8/8 7/7/7 
f 16/26/16 14/22/14 5/5/5 8/8/8 
# 14 polygons

#
# object Box002
#

v  -68.7310 11.8760 -12.5209
v  -68.7310 37.4986 -12.5209
v  -49.5141 37.4986 -12.5209
v  -49.5141 11.8760 -12.5209
v  -65.5564 14.8565 3.5829
v  -52.6887 14.8565 3.5829
v  -52.6887 32.0134 3.5829
v  -65.5564 32.0134 3.5829
v  -49.5141 11.8760 5.4507
v  -68.7310 11.8760 5.4507
v  -49.5141 37.4986 5.4507
v  -68.7310 37.4986 5.4507
v  -52.6887 14.8565 4.6945
v  -65.5564 14.8565 4.6945
v  -52.6887 32.0134 4.6945
v  -65.5564 32.0134 4.6945
# 16 vertices

vn -0.5774 -0.5774 -0.5774
vn -0.5774 0.5774 -0.5774
vn 0.5774 0.5774 -0.5774
vn 0.5774 -0.5774 -0.5774
vn 0.5774 0.5774 0.5774
vn -0.5774 0.5774 0.5774
vn -0.5774 -0.5774 0.5774
vn 0.5774 -0.5774 0.5774
vn 0.5525 -0.5538 0.6229
vn -0.5525 -0.5538 0.6229
vn 0.5643 0.5568 0.6095
vn -0.5643 0.5568 0.6095
vn -0.3861 0.3949 0.8336
vn 0.3861 0.3949 0.8336
vn -0.4011 -0.3424 0.8496
vn 0.4011 -0.3424 0.8496
# 16 vertex normals

vt 0.7128 0.7471 0.0000
vt 0.3591 0.7476 0.0000
vt 0.3550 0.4825 0.0000
vt 0.7127 0.4818 0.0000
vt 0.0620 0.0599 0.0000
vt 0.2535 0.0602 0.0000
vt 0.2544 0.3150 0.0000
vt 0.0629 0.3161 0.0000
vt 0.7512 0.2660 0.0000
vt 0.7512 0.0000 0.0000
vt 0.9999 0.0016 0.0000
vt 0.9999 0.2676 0.0000
vt 0.3536 0.2332 0.0000
vt 0.7134 0.2327 0.0000
vt 0.1115 0.7482 0.0000
vt 0.1107 0.4834 0.0000
vt 0.7522 0.6223 0.0000
vt 1.0009 0.6216 0.0000
vt 0.0006 0.0015 0.0000
vt 0.3161 0.0005 0.0000
vt 0.2663 0.0494 0.0000
vt 0.0512 0.0496 0.0000
vt 0.3155 0.4139 0.0000
vt 0.2652 0.3267 0.0000
vt 0.0005 0.4140 0.0000
vt 0.0511 0.3255 0.0000
# 26 texture coords

o Box002
g Box002
usemtl Material__30
s 2
f 17/27/17 18/28/18 19/29/19 20/30/20 
s 4
f 21/31/21 22/32/22 23/33/23 24/34/24 
s 8
f 17/35/17 20/36/20 25/37/25 26/38/26 
s 16
f 20/30/20 19/29/19 27/39/27 25/40/25 
s 32
f 19/29/19 18/28/18 28/41/28 27/42/27 
s 64
f 18/43/18 17/35/17 26/38/26 28/44/28 
s off
f 26/45/26 25/46/25 29/47/29 30/48/30 
f 25/46/25 27/49/27 31/50/31 29/47/29 
f 27/49/27 28/51/28 32/52/32 31/50/31 
f 28/51/28 26/45/26 30/48/30 32/52/32 
f 30/48/30 29/47/29 22/32/22 21/31/21 
f 29/47/29 31/50/31 23/33/23 22/32/22 
f 31/50/31 32/52/32 24/34/24 23/33/23 
f 32/52/32 30/48/30 21/31/21 24/34/24 
# 14 polygons

#
# object Box003
#

v  -48.8626 11.8760 -12.5209
v  -48.8626 37.4986 -12.5209
v  -29.6457 37.4986 -12.5209
v  -29.6457 11.8760 -12.5209
v  -45.6880 14.8565 3.5829
v  -32.8203 14.8565 3.5829
v  -32.8203 32.0134 3.5829
v  -45.6880 32.0134 3.5829
v  -29.6457 11.8760 5.4507
v  -48.8626 11.8760 5.4507
v  -29.6457 37.4986 5.4507
v  -48.8626 37.4986 5.4507
v  -32.8203 14.8565 4.6945
v  -45.6880 14.8565 4.6945
v  -32.8203 32.0134 4.6945
v  -45.6880 32.0134 4.6945
# 16 vertices

vn -0.5774 -0.5774 -0.5774
vn -0.5774 0.5774 -0.5774
vn 0.5774 0.5774 -0.5774
vn 0.5774 -0.5774 -0.5774
vn 0.5774 0.5774 0.5774
vn -0.5774 0.5774 0.5774
vn -0.5774 -0.5774 0.5774
vn 0.5774 -0.5774 0.5774
vn 0.5525 -0.5538 0.6229
vn -0.5525 -0.5538 0.6229
vn 0.5643 0.5568 0.6095
vn -0.5643 0.5568 0.6095
vn -0.3861 0.3949 0.8336
vn 0.3861 0.3949 0.8336
vn -0.4011 -0.3424 0.8496
vn 0.4011 -0.3424 0.8496
# 16 vertex normals

vt 0.7128 0.7471 0.0000
vt 0.3591 0.7476 0.0000
vt 0.3550 0.4825 0.0000
vt 0.7127 0.4818 0.0000
vt 0.0620 0.0599 0.0000
vt 0.2535 0.0602 0.0000
vt 0.2544 0.3150 0.0000
vt 0.0629 0.3161 0.0000
vt 0.7512 0.2660 0.0000
vt 0.7512 0.0000 0.0000
vt 0.9999 0.0016 0.0000
vt 0.9999 0.2676 0.0000
vt 0.3536 0.2332 0.0000
vt 0.7134 0.2327 0.0000
vt 0.1115 0.7482 0.0000
vt 0.1107 0.4834 0.0000
vt 0.7522 0.6223 0.0000
vt 1.0009 0.6216 0.0000
vt 0.0006 0.0015 0.0000
vt 0.3161 0.0005 0.0000
vt 0.2663 0.0494 0.0000
vt 0.0512 0.0496 0.0000
vt 0.3155 0.4139 0.0000
vt 0.2652 0.3267 0.0000
vt 0.0005 0.4140 0.0000
vt 0.0511 0.3255 0.0000
# 26 texture coords

o Box003
g Box003
usemtl Material__28
s 2
f 33/53/33 34/54/34 35/55/35 36/56/36 
s 4
f 37/57/37 38/58/38 39/59/39 40/60/40 
s 8
f 33/61/33 36/62/36 41/63/41 42/64/42 
s 16
f 36/56/36 35/55/35 43/65/43 41/66/41 
s 32
f 35/55/35 34/54/34 44/67/44 43/68/43 
s 64
f 34/69/34 33/61/33 42/64/42 44/70/44 
s off
f 42/71/42 41/72/41 45/73/45 46/74/46 
f 41/72/41 43/75/43 47/76/47 45/73/45 
f 43/75/43 44/77/44 48/78/48 47/76/47 
f 44/77/44 42/71/42 46/74/46 48/78/48 
f 46/74/46 45/73/45 38/58/38 37/57/37 
f 45/73/45 47/76/47 39/59/39 38/58/38 
f 47/76/47 48/78/48 40/60/40 39/59/39 
f 48/78/48 46/74/46 37/57/37 40/60/40 
# 14 polygons

#
# object Box004
#

v  19.4249 11.8760 -12.5209
v  19.4249 37.4986 -12.5209
v  38.6418 37.4986 -12.5209
v  38.6418 11.8760 -12.5209
v  22.5995 14.8565 3.5829
v  35.4672 14.8565 3.5829
v  35.4672 32.0134 3.5829
v  22.5995 32.0134 3.5829
v  38.6418 11.8760 5.4507
v  19.4249 11.8760 5.4507
v  38.6418 37.4986 5.4507
v  19.4249 37.4986 5.4507
v  35.4672 14.8565 4.6945
v  22.5995 14.8565 4.6945
v  35.4672 32.0134 4.6945
v  22.5995 32.0134 4.6945
# 16 vertices

vn -0.5774 -0.5774 -0.5774
vn -0.5774 0.5774 -0.5774
vn 0.5774 0.5774 -0.5774
vn 0.5774 -0.5774 -0.5774
vn 0.5774 0.5774 0.5774
vn -0.5774 0.5774 0.5774
vn -0.5774 -0.5774 0.5774
vn 0.5774 -0.5774 0.5774
vn 0.5525 -0.5538 0.6229
vn -0.5525 -0.5538 0.6229
vn 0.5643 0.5568 0.6095
vn -0.5643 0.5568 0.6095
vn -0.3861 0.3949 0.8336
vn 0.3861 0.3949 0.8336
vn -0.4011 -0.3424 0.8496
vn 0.4011 -0.3424 0.8496
# 16 vertex normals

vt 0.7128 0.7471 0.0000
vt 0.3591 0.7476 0.0000
vt 0.3550 0.4825 0.0000
vt 0.7127 0.4818 0.0000
vt 0.0620 0.0599 0.0000
vt 0.2535 0.0602 0.0000
vt 0.2544 0.3150 0.0000
vt 0.0629 0.3161 0.0000
vt 0.7512 0.2660 0.0000
vt 0.7512 0.0000 0.0000
vt 0.9999 0.0016 0.0000
vt 0.9999 0.2676 0.0000
vt 0.3536 0.2332 0.0000
vt 0.7134 0.2327 0.0000
vt 0.1115 0.7482 0.0000
vt 0.1107 0.4834 0.0000
vt 0.7522 0.6223 0.0000
vt 1.0009 0.6216 0.0000
vt 0.0006 0.0015 0.0000
vt 0.3161 0.0005 0.0000
vt 0.2663 0.0494 0.0000
vt 0.0512 0.0496 0.0000
vt 0.3155 0.4139 0.0000
vt 0.2652 0.3267 0.0000
vt 0.0005 0.4140 0.0000
vt 0.0511 0.3255 0.0000
# 26 texture coords

o Box004
g Box004
usemtl Material__28
s 2
f 49/79/49 50/80/50 51/81/51 52/82/52 
s 4
f 53/83/53 54/84/54 55/85/55 56/86/56 
s 8
f 49/87/49 52/88/52 57/89/57 58/90/58 
s 16
f 52/82/52 51/81/51 59/91/59 57/92/57 
s 32
f 51/81/51 50/80/50 60/93/60 59/94/59 
s 64
f 50/95/50 49/87/49 58/90/58 60/96/60 
s off
f 58/97/58 57/98/57 61/99/61 62/100/62 
f 57/98/57 59/101/59 63/102/63 61/99/61 
f 59/101/59 60/103/60 64/104/64 63/102/63 
f 60/103/60 58/97/58 62/100/62 64/104/64 
f 62/100/62 61/99/61 54/84/54 53/83/53 
f 61/99/61 63/102/63 55/85/55 54/84/54 
f 63/102/63 64/104/64 56/86/56 55/85/55 
f 64/104/64 62/100/62 53/83/53 56/86/56 
# 14 polygons

#
# object Box005
#

v  39.3919 11.8760 -12.5209
v  39.3919 37.4986 -12.5209
v  58.6089 37.4986 -12.5209
v  58.6089 11.8760 -12.5209
v  42.5666 14.8565 3.5829
v  55.4342 14.8565 3.5829
v  55.4342 32.0134 3.5829
v  42.5666 32.0134 3.5829
v  58.6089 11.8760 5.4507
v  39.3919 11.8760 5.4507
v  58.6089 37.4986 5.4507
v  39.3919 37.4986 5.4507
v  55.4342 14.8565 4.6945
v  42.5666 14.8565 4.6945
v  55.4342 32.0134 4.6945
v  42.5666 32.0134 4.6945
# 16 vertices

vn -0.5774 -0.5774 -0.5774
vn -0.5774 0.5774 -0.5774
vn 0.5774 0.5774 -0.5774
vn 0.5774 -0.5774 -0.5774
vn 0.5774 0.5774 0.5774
vn -0.5774 0.5774 0.5774
vn -0.5774 -0.5774 0.5774
vn 0.5774 -0.5774 0.5774
vn 0.5525 -0.5538 0.6229
vn -0.5525 -0.5538 0.6229
vn 0.5643 0.5568 0.6095
vn -0.5643 0.5568 0.6095
vn -0.3861 0.3949 0.8336
vn 0.3861 0.3949 0.8336
vn -0.4011 -0.3424 0.8496
vn 0.4011 -0.3424 0.8496
# 16 vertex normals

vt 0.7128 0.7471 0.0000
vt 0.3591 0.7476 0.0000
vt 0.3550 0.4825 0.0000
vt 0.7127 0.4818 0.0000
vt 0.0620 0.0599 0.0000
vt 0.2535 0.0602 0.0000
vt 0.2544 0.3150 0.0000
vt 0.0629 0.3161 0.0000
vt 0.7512 0.2660 0.0000
vt 0.7512 0.0000 0.0000
vt 0.9999 0.0016 0.0000
vt 0.9999 0.2676 0.0000
vt 0.3536 0.2332 0.0000
vt 0.7134 0.2327 0.0000
vt 0.1115 0.7482 0.0000
vt 0.1107 0.4834 0.0000
vt 0.7522 0.6223 0.0000
vt 1.0009 0.6216 0.0000
vt 0.0006 0.0015 0.0000
vt 0.3161 0.0005 0.0000
vt 0.2663 0.0494 0.0000
vt 0.0512 0.0496 0.0000
vt 0.3155 0.4139 0.0000
vt 0.2652 0.3267 0.0000
vt 0.0005 0.4140 0.0000
vt 0.0511 0.3255 0.0000
# 26 texture coords

o Box005
g Box005
usemtl Material__28
s 2
f 65/105/65 66/106/66 67/107/67 68/108/68 
s 4
f 69/109/69 70/110/70 71/111/71 72/112/72 
s 8
f 65/113/65 68/114/68 73/115/73 74/116/74 
s 16
f 68/108/68 67/107/67 75/117/75 73/118/73 
s 32
f 67/107/67 66/106/66 76/119/76 75/120/75 
s 64
f 66/121/66 65/113/65 74/116/74 76/122/76 
s off
f 74/123/74 73/124/73 77/125/77 78/126/78 
f 73/124/73 75/127/75 79/128/79 77/125/77 
f 75/127/75 76/129/76 80/130/80 79/128/79 
f 76/129/76 74/123/74 78/126/78 80/130/80 
f 78/126/78 77/125/77 70/110/70 69/109/69 
f 77/125/77 79/128/79 71/111/71 70/110/70 
f 79/128/79 80/130/80 72/112/72 71/111/71 
f 80/130/80 78/126/78 69/109/69 72/112/72 
# 14 polygons

#
# object Box006
#

v  59.1707 11.8760 -12.5209
v  59.1707 37.4986 -12.5209
v  78.3877 37.4986 -12.5209
v  78.3877 11.8760 -12.5209
v  62.3454 14.8565 3.5829
v  75.2130 14.8565 3.5829
v  75.2130 32.0134 3.5829
v  62.3454 32.0134 3.5829
v  78.3877 11.8760 5.4507
v  59.1707 11.8760 5.4507
v  78.3877 37.4986 5.4507
v  59.1707 37.4986 5.4507
v  75.2130 14.8565 4.6945
v  62.3454 14.8565 4.6945
v  75.2130 32.0134 4.6945
v  62.3454 32.0134 4.6945
# 16 vertices

vn -0.5774 -0.5774 -0.5774
vn -0.5774 0.5774 -0.5774
vn 0.5774 0.5774 -0.5774
vn 0.5774 -0.5774 -0.5774
vn 0.5774 0.5774 0.5774
vn -0.5774 0.5774 0.5774
vn -0.5774 -0.5774 0.5774
vn 0.5774 -0.5774 0.5774
vn 0.5525 -0.5538 0.6229
vn -0.5525 -0.5538 0.6229
vn 0.5643 0.5568 0.6095
vn -0.5643 0.5568 0.6095
vn -0.3861 0.3949 0.8336
vn 0.3861 0.3949 0.8336
vn -0.4011 -0.3424 0.8496
vn 0.4011 -0.3424 0.8496
# 16 vertex normals

vt 0.7128 0.7471 0.0000
vt 0.3591 0.7476 0.0000
vt 0.3550 0.4825 0.0000
vt 0.7127 0.4818 0.0000
vt 0.0620 0.0599 0.0000
vt 0.2535 0.0602 0.0000
vt 0.2544 0.3150 0.0000
vt 0.0629 0.3161 0.0000
vt 0.7512 0.2660 0.0000
vt 0.7512 0.0000 0.0000
vt 0.9999 0.0016 0.0000
vt 0.9999 0.2676 0.0000
vt 0.3536 0.2332 0.0000
vt 0.7134 0.2327 0.0000
vt 0.1115 0.7482 0.0000
vt 0.1107 0.4834 0.0000
vt 0.7522 0.6223 0.0000
vt 1.0009 0.6216 0.0000
vt 0.0006 0.0015 0.0000
vt 0.3161 0.0005 0.0000
vt 0.2663 0.0494 0.0000
vt 0.0512 0.0496 0.0000
vt 0.3155 0.4139 0.0000
vt 0.2652 0.3267 0.0000
vt 0.0005 0.4140 0.0000
vt 0.0511 0.3255 0.0000
# 26 texture coords

o Box006
g Box006
usemtl Material__28
s 2
f 81/131/81 82/132/82 83/133/83 84/134/84 
s 4
f 85/135/85 86/136/86 87/137/87 88/138/88 
s 8
f 81/139/81 84/140/84 89/141/89 90/142/90 
s 16
f 84/134/84 83/133/83 91/143/91 89/144/89 
s 32
f 83/133/83 82/132/82 92/145/92 91/146/91 
s 64
f 82/147/82 81/139/81 90/142/90 92/148/92 
s off
f 90/149/90 89/150/89 93/151/93 94/152/94 
f 89/150/89 91/153/91 95/154/95 93/151/93 
f 91/153/91 92/155/92 96/156/96 95/154/95 
f 92/155/92 90/149/90 94/152/94 96/156/96 
f 94/152/94 93/151/93 86/136/86 85/135/85 
f 93/151/93 95/154/95 87/137/87 86/136/86 
f 95/154/95 96/156/96 88/138/88 87/137/87 
f 96/156/96 94/152/94 85/135/85 88/138/88 
# 14 polygons

